<?xml version="1.0" encoding="utf-8"?>
<!-- Generator: Adobe Illustrator 24.3.0, SVG Export Plug-In . SVG Version: 6.00 Build 0)  -->
<svg version="1.1" id="Layer_1" xmlns="http://www.w3.org/2000/svg" xmlns:xlink="http://www.w3.org/1999/xlink" x="0px" y="0px"
	 viewBox="0 0 595.28 147.99" style="enable-background:new 0 0 595.28 147.99;" xml:space="preserve">
<style type="text/css">
	.st0{fill:#023760;}
	.st1{fill:#059BDA;}
</style>
<g>
	<path class="st0" d="M75.84,85.56c0-0.37,0-0.65,0-0.93c0-17.8,0-35.59,0-53.39c0-0.11,0-0.23,0-0.34
		c0.01-0.55,0.02-0.56,0.56-0.56c6.56,0.02,13.12-0.08,19.68,0.09c4.8,0.12,9.41,1.26,13.62,3.67c5.74,3.29,9.31,8.24,10.97,14.6
		c0.5,1.9,0.76,3.84,0.92,5.8c0.18,2.22,0.14,4.44-0.05,6.65c-0.34,3.98-1.24,7.81-3.14,11.35c-2.55,4.75-6.37,8.11-11.28,10.26
		c-2.97,1.29-6.08,2.04-9.28,2.44c-2.21,0.28-4.43,0.36-6.65,0.36c-4.76,0-9.53,0-14.29,0C76.58,85.56,76.26,85.56,75.84,85.56z
		 M87.53,57.88c0,2.02,0,4.05,0,6.07c0,3.71,0,7.41,0,11.12c0,0.91-0.06,0.81,0.84,0.81c1.54,0,3.08,0.02,4.62-0.01
		c2.05-0.04,4.09-0.26,6.06-0.85c4.19-1.24,7.17-3.83,8.84-7.9c0.84-2.04,1.28-4.18,1.46-6.37c0.16-1.84,0.18-3.69,0.05-5.54
		c-0.16-2.17-0.51-4.29-1.24-6.34c-0.8-2.23-2.02-4.19-3.87-5.73c-2.54-2.11-5.54-2.99-8.75-3.15c-2.48-0.12-4.96-0.06-7.44-0.07
		c-0.55,0-0.55,0.02-0.57,0.57c0,0.14,0,0.29,0,0.43C87.53,46.59,87.53,52.24,87.53,57.88z"/>
	<path class="st0" d="M142.04,85.54c0.67-1.92,1.31-3.76,1.95-5.61c3.93-11.2,7.87-22.4,11.8-33.6c1.82-5.17,3.63-10.34,5.46-15.51
		c0.3-0.84,0.16-0.75,1.07-0.75c4.28,0,8.56,0,12.83,0c0.72,0,0.72,0,0.96,0.66c3.73,10.58,7.45,21.16,11.19,31.74
		c2.62,7.42,5.24,14.83,7.86,22.25c0.09,0.26,0.17,0.53,0.28,0.86c-0.26,0-0.45,0-0.65,0c-3.74,0-7.47,0-11.21,0
		c-0.77,0-0.77,0-0.99-0.71c-1.19-3.91-2.38-7.83-3.58-11.73c-0.25-0.79-0.05-0.69-0.91-0.69c-6.25-0.01-12.49,0-18.74,0
		c-0.67,0-0.68,0-0.87,0.64c-1.2,3.94-2.4,7.88-3.6,11.82c-0.2,0.67-0.21,0.67-0.86,0.67c-3.88,0-7.76,0-11.63,0
		C142.32,85.59,142.24,85.57,142.04,85.54z M168.75,39.1c-2.34,7.77-4.69,15.58-7.04,23.42c4.79,0,9.51,0,14.25,0
		C173.54,54.67,171.14,46.86,168.75,39.1z"/>
	<path class="st1" d="M49.89,27.39c-0.66-0.54-6.03-5.59-6.67-6.14c-4.32-3.77-8.83-7.28-13.67-10.37C26,8.62,22.31,6.62,18.27,5.33
		c-1.66-0.53-3.36-0.89-5.09-0.92c-1.62-0.03-3.22,0.25-4.66,1.11c-1.9,1.14-2.93,2.89-3.52,4.95c-0.61,2.11-0.64,4.27-0.53,6.44
		c0.15,2.94,0.71,5.8,1.44,8.64c1.29,5.01,3.03,9.88,5.14,14.6c1.62,3.63,3.31,7.24,5.1,10.79c2.33,4.62,4.88,9.13,7.62,13.52
		c2.44,3.91,4.92,7.79,7.49,11.62c3.84,5.73,7.9,11.29,12.21,16.67c3.1,3.86,6.27,7.68,9.47,11.46c1.71,2.02,3.52,3.96,5.33,5.89
		c2.22,2.37,4.44,4.74,6.75,7.02c5.6,5.53,11.44,10.78,17.8,15.44c3.88,2.85,7.92,5.46,12.3,7.48c2.38,1.1,4.83,2,7.44,2.36
		c1.99,0.27,3.98,0.27,5.86-0.62c1.97-0.93,3.18-2.51,3.9-4.53c0.58-1.63,0.8-3.31,0.83-5.02c0.08-3.56-0.56-7.02-1.41-10.45
		c-1.34-5.38-3.28-10.57-5.51-15.64c-0.9-2.03-1.87-4.03-2.8-6.04c-0.08-0.17-0.9-2.04-0.95-2.29c0.09,0.11,1.05,1.91,1.12,2.03
		c3.31,6.45,6.36,13.02,8.78,19.87c1.3,3.67,2.39,7.4,3.11,11.23c0.51,2.69,0.76,5.42,0.56,8.16c-0.11,1.45-0.39,2.86-0.97,4.22
		c-1.26,2.95-3.53,4.43-6.68,4.63c-2.49,0.15-4.85-0.44-7.17-1.27c-3.36-1.21-6.49-2.89-9.51-4.77c-4.45-2.77-8.61-5.95-12.65-9.3
		c-6.21-5.16-11.99-10.79-17.57-16.62c-4.09-4.28-8.02-8.72-11.83-13.26c-6.23-7.42-12.13-15.09-17.71-23.01
		c-4.26-6.05-8.34-12.23-12.11-18.59c-2.41-4.06-4.69-8.2-6.93-12.35c-2.76-5.1-5.19-10.37-7.36-15.75
		c-1.6-3.98-3.02-8.02-4.07-12.19C0.51,17.04-0.2,13.18,0.05,9.22C0.19,6.99,0.63,4.82,2,2.96C3.25,1.25,4.97,0.36,7.04,0.1
		c2.58-0.33,5.03,0.24,7.43,1.07c4.61,1.59,8.75,4.06,12.77,6.77c3.52,2.38,6.88,4.96,10.11,7.72c2.53,2.17,4.99,4.41,7.48,6.63
		c0.16,0.14,4.97,4.87,5.11,5.04C49.94,27.33,49.89,27.39,49.89,27.39z"/>
	<path class="st0" d="M55.67,57.85c0-8.87,0-17.73,0-26.6c0-0.97-0.18-0.96,0.97-0.96c3.25,0,6.5,0,9.75,0c0.14,0,0.29,0.02,0.43,0
		c0.4-0.05,0.49,0.16,0.46,0.5c-0.01,0.14,0,0.28,0,0.43c0,17.82,0,35.64,0,53.46c0,0.09,0,0.17,0,0.26
		c-0.01,0.65-0.01,0.66-0.64,0.66c-3.39,0-6.79,0-10.18,0c-0.78,0-0.78-0.01-0.78-0.8C55.67,75.81,55.67,66.83,55.67,57.85z"/>
	<path class="st0" d="M138.16,58.03c0,8.78,0,17.57,0,26.35c0,0.14,0,0.29,0,0.43c0,0.81,0.05,0.74-0.73,0.74
		c-3.34,0-6.67,0-10.01,0c-0.81,0-0.77,0.1-0.77-0.79c0-8.3,0-16.6,0-24.9c0-9.53,0-19.05,0-28.58c0-1.11-0.13-0.95,0.94-0.96
		c3.25-0.01,6.5,0,9.75,0c0.9,0,0.81-0.11,0.81,0.83C138.16,40.12,138.16,49.08,138.16,58.03z"/>
	<path class="st1" d="M132.58,24.61c-3.36,0.1-6.56-2.61-6.55-6.54c0.01-3.61,2.88-6.43,6.46-6.48c3.41-0.04,6.57,2.55,6.59,6.51
		C139.09,21.97,135.97,24.66,132.58,24.61z"/>
	<path class="st1" d="M16.39,78.31c0.47,0.83,0.94,1.67,1.42,2.5c3.3,5.8,7.09,11.26,11.2,16.52c2.96,3.8,6.09,7.45,9.38,10.97
		c3.9,4.16,7.98,8.14,12.26,11.91c4.97,4.37,10.16,8.45,15.57,12.24c1.51,1.06,3.05,2.08,4.53,3.23c-0.31-0.12-0.62-0.22-0.92-0.36
		c-2.32-1.02-4.56-2.19-6.75-3.46c-4.47-2.58-8.67-5.55-12.67-8.82c-4.11-3.36-7.94-7.02-11.55-10.91
		c-4.52-4.88-8.59-10.11-12.3-15.62c-2.34-3.47-4.52-7.04-6.5-10.72c-1.18-2.18-2.29-4.39-3.43-6.58c-0.14-0.27-0.23-0.47-0.32-0.75
		c-0.01-0.02-0.12-0.22-0.12-0.54C16.18,77.89,16.32,78.19,16.39,78.31z"/>
	<path class="st0" d="M559.95,71.85c2.08-3.26,7.9-3.21,9.37,0.27c0.37-0.42,0.69-0.89,1.1-1.24c1.96-1.64,4.17-1.8,6.49-0.95
		c1.04,0.38,1.73,1.17,2.12,2.21c0.31,0.84,0.47,1.7,0.47,2.59c0,3.34,0,6.67,0,10.01c0,0.82,0.1,0.77-0.79,0.77
		c-0.68,0-0.68,0-0.69-0.71c0-0.11,0-0.23,0-0.34c0-3.14,0.01-6.27-0.01-9.41c0-0.56-0.05-1.14-0.18-1.69
		c-0.37-1.63-1.32-2.44-2.98-2.56c-0.83-0.06-1.65,0.04-2.44,0.31c-1.03,0.36-1.75,1.04-2.17,2.04c-0.36,0.88-0.51,1.8-0.51,2.75
		c0,2.94,0,5.87,0,8.81c0,0.82,0.11,0.8-0.77,0.79c-0.14,0-0.29-0.01-0.43,0c-0.27,0.02-0.34-0.13-0.33-0.37c0.01-0.2,0-0.4,0-0.6
		c0-3.25,0-6.5,0-9.75c0-0.4-0.04-0.8-0.11-1.19c-0.31-1.76-1.26-2.67-3.04-2.79c-0.73-0.05-1.48,0.05-2.19,0.22
		c-1.23,0.29-2.03,1.12-2.46,2.28c-0.39,1.05-0.52,2.16-0.53,3.27c-0.01,2.68,0,5.36,0,8.04c0,0.2,0.02,0.4-0.01,0.6
		c-0.02,0.1-0.15,0.19-0.24,0.27c-0.01,0.01-0.06,0-0.08,0.01c-1.1,0.13-1.15,0.09-1.15-1.01c0-4.62,0-9.24,0-13.86
		c0-0.2,0-0.4,0-0.6c0-0.22,0.12-0.3,0.32-0.3c0.2,0,0.4,0,0.6,0c0.24-0.01,0.35,0.09,0.38,0.34
		C559.75,70.62,559.84,71.15,559.95,71.85z"/>
	<path class="st0" d="M263.45,74.9c0-3.31,0-6.61,0-9.92c0-0.66,0.01-0.68,0.63-0.67c2.36,0.04,4.73,0.02,7.09,0.16
		c1.82,0.1,3.5,0.72,4.97,1.84c1.72,1.31,2.68,3.09,3.09,5.15c0.48,2.4,0.48,4.82-0.14,7.2c-0.94,3.56-3.3,5.69-6.86,6.48
		c-1.02,0.23-2.08,0.33-3.13,0.36c-1.68,0.06-3.36,0.02-5.05,0.02c-0.6,0-0.61-0.01-0.61-0.61
		C263.45,81.57,263.45,78.24,263.45,74.9z M264.98,74.94c0,1.68,0,3.37,0,5.05c0,1.23,0,2.45,0,3.68c0,0.28,0,0.51,0.38,0.5
		c1.93-0.06,3.88,0.15,5.8-0.2c3.29-0.61,5.53-2.42,6.36-5.75c0.58-2.37,0.58-4.74-0.09-7.09c-0.63-2.21-2-3.83-4.17-4.66
		c-0.81-0.31-1.69-0.56-2.55-0.63c-1.67-0.13-3.36-0.13-5.04-0.16c-0.68-0.01-0.69,0.01-0.69,0.71
		C264.98,69.23,264.98,72.09,264.98,74.94z"/>
	<path class="st0" d="M452.61,85.52c1.33-3.33,2.61-6.52,3.88-9.71c1.44-3.59,2.87-7.18,4.31-10.77c0.03-0.08,0.07-0.15,0.1-0.23
		c0.12-0.33,0.23-0.59,0.7-0.58c0.45,0.01,0.58,0.21,0.72,0.56c0.66,1.72,1.35,3.44,2.02,5.16c1.88,4.79,3.76,9.58,5.63,14.37
		c0.14,0.36,0.27,0.73,0.4,1.09c-0.08,0.05-0.1,0.07-0.13,0.07c-1.47,0.16-1.47,0.16-2.01-1.21c-0.74-1.88-1.49-3.75-2.21-5.64
		c-0.17-0.44-0.39-0.59-0.87-0.59c-2.42,0.03-4.85,0.01-7.27,0.02c-0.64,0-0.64,0.01-0.89,0.65c-0.81,2.03-1.61,4.07-2.42,6.1
		c-0.31,0.79-0.15,0.7-1.03,0.71C453.27,85.52,452.99,85.52,452.61,85.52z M465.28,76.66c-1.25-3.31-2.46-6.54-3.68-9.79
		c-1.27,3.29-2.51,6.51-3.78,9.79C460.33,76.66,462.75,76.66,465.28,76.66z"/>
	<path class="st0" d="M302.18,37.75c0-2.31,0-4.62,0-6.93c0-0.69,0.01-0.69,0.72-0.69c0.17,0,0.36-0.04,0.51,0.01
		c0.13,0.05,0.27,0.18,0.32,0.31c0.05,0.15,0.01,0.34,0.01,0.51c0,4.14,0.02,8.27-0.02,12.41c-0.01,1.04-0.1,2.12-0.36,3.12
		c-0.66,2.49-2.33,4.07-4.79,4.76c-1.9,0.53-3.84,0.55-5.74-0.02c-2.61-0.77-4.17-2.57-4.74-5.21c-0.15-0.72-0.21-1.47-0.21-2.21
		c-0.02-4.31-0.01-8.61-0.01-12.92c0-0.14,0-0.29,0-0.43c0-0.2,0.07-0.33,0.29-0.33c0.06,0,0.11,0,0.17,0
		c1.32,0.01,1.06-0.11,1.06,1.01c0.01,4.16-0.01,8.33,0.02,12.49c0,0.79,0.06,1.61,0.26,2.37c0.53,2.02,1.8,3.39,3.85,3.95
		c1.54,0.43,3.09,0.42,4.64,0c2.08-0.56,3.66-2.3,3.93-4.76c0.09-0.82,0.08-1.65,0.08-2.48C302.19,41.06,302.18,39.4,302.18,37.75z"
		/>
	<path class="st0" d="M524.68,49.3c0.14,1.57,0.16,1.31-1.05,1.72c-1.75,0.6-3.56,0.75-5.39,0.45c-2.79-0.45-4.58-2.09-5.32-4.77
		c-0.75-2.68-0.66-5.37,0.6-7.91c1.54-3.1,4.6-4.07,7.55-3.34c2,0.5,3.17,1.92,3.84,3.79c0.45,1.28,0.5,2.62,0.49,3.96
		c0,0.33-0.12,0.48-0.45,0.46c-0.17-0.01-0.34,0-0.51,0c-3.11,0-6.22,0-9.32,0c-0.23,0-0.46,0-0.68,0.01
		c-0.24,0.01-0.36,0.12-0.35,0.37c0.06,1.56,0.35,3.06,1.34,4.33c1,1.28,2.38,1.83,3.96,1.86C521.09,50.27,521.76,50.33,524.68,49.3
		z M514.14,42.35c3.15,0,6.17,0,9.19,0c0.03,0,0.06,0,0.09,0c0.25,0.02,0.36-0.09,0.36-0.35c0-1.52-0.32-2.94-1.34-4.12
		c-1.61-1.88-4.51-1.52-5.93-0.5C514.84,38.58,514.33,40.33,514.14,42.35z"/>
	<path class="st0" d="M376.83,83.48c0.13,1.58,0.22,1.32-1.03,1.76c-1.92,0.67-3.9,0.8-5.89,0.38c-2.08-0.44-3.66-1.63-4.46-3.61
		c-1.25-3.08-1.22-6.18,0.3-9.16c1.57-3.09,4.84-3.9,7.55-3.13c2.2,0.63,3.38,2.25,3.88,4.37c0.25,1.07,0.22,2.2,0.32,3.3
		c0.04,0.44-0.18,0.53-0.56,0.52c-0.51-0.02-1.03-0.01-1.54-0.01c-2.85,0-5.7,0-8.55,0c-0.67,0-0.71,0.02-0.63,0.66
		c0.08,0.73,0.17,1.48,0.38,2.18c0.7,2.34,2.5,3.66,4.93,3.75C373.35,84.54,375.1,84.21,376.83,83.48z M366.26,76.55
		c0.23,0.01,0.34,0.02,0.45,0.02c2.84,0,5.69,0,8.53,0c0.11,0,0.25,0.03,0.34-0.01c0.12-0.06,0.31-0.18,0.31-0.28
		c0.02-1.48-0.28-2.87-1.22-4.07c-1.53-1.94-4.53-1.74-6.11-0.57C366.95,72.85,366.46,74.58,366.26,76.55z"/>
	<path class="st0" d="M356.91,49.3c0.03,0.05,0.06,0.07,0.06,0.09c0.14,1.23,0.14,1.25-1.03,1.62c-2.13,0.68-4.3,0.87-6.47,0.24
		c-2.06-0.6-3.45-1.99-4.13-3.99c-0.93-2.74-0.91-5.51,0.28-8.16c1.5-3.37,4.63-4.36,7.61-3.66c1.89,0.44,3.08,1.74,3.8,3.5
		c0.58,1.41,0.57,2.89,0.55,4.37c0,0.24-0.09,0.38-0.35,0.36c-0.2-0.01-0.4,0-0.6,0c-3.16,0-6.33,0-9.49,0
		c-0.93,0-0.95,0.01-0.8,0.96c0.12,0.73,0.22,1.47,0.45,2.16c0.72,2.13,2.53,3.39,4.79,3.46c1.7,0.05,3.35-0.16,4.92-0.82
		C356.64,49.37,356.78,49.33,356.91,49.3z M346.38,42.32c0.25,0.02,0.36,0.03,0.47,0.03c2.85,0,5.7,0,8.56,0
		c0.11,0,0.25,0.04,0.34-0.01c0.12-0.07,0.29-0.2,0.29-0.31c-0.02-1.6-0.35-3.12-1.5-4.32c-1.18-1.23-3.36-1.54-5.09-0.71
		C347.24,38.05,346.63,40.03,346.38,42.32z"/>
	<path class="st0" d="M264.06,49.33c0.16,1.29,0.17,1.32-1.01,1.7c-1.9,0.62-3.86,0.79-5.82,0.38c-2.18-0.46-3.79-1.72-4.6-3.81
		c-1.12-2.89-1.08-5.81,0.2-8.63c1.52-3.35,5.44-4.72,8.64-3.12c1.62,0.81,2.49,2.2,2.97,3.88c0.32,1.14,0.34,2.3,0.33,3.48
		c0,0.39-0.16,0.49-0.51,0.47c-0.43-0.02-0.86-0.01-1.28-0.01c-2.97,0-5.93,0-8.9,0c-0.62,0-0.62,0.01-0.61,0.61
		c0.02,0.98,0.21,1.93,0.59,2.83c0.86,2.01,2.45,3.01,4.59,3.14c1.7,0.1,3.35-0.13,4.94-0.79c0.1-0.04,0.22-0.07,0.33-0.1
		C263.96,49.33,264.01,49.34,264.06,49.33z M258.36,42.35c1.08,0,2.17,0.01,3.25-0.01c0.53-0.01,1.06-0.07,1.59-0.11
		c-0.04-0.54-0.05-1.08-0.14-1.61c-0.21-1.2-0.65-2.3-1.61-3.12c-1.95-1.67-5.25-1.13-6.77,1.09c-0.68,0.99-0.95,2.11-1.14,3.27
		c-0.07,0.42,0.09,0.49,0.44,0.48C255.45,42.34,256.9,42.35,258.36,42.35z"/>
	<path class="st0" d="M443.18,83.5c0.1,1.63,0.21,1.3-1.07,1.74c-1.88,0.66-3.85,0.79-5.81,0.38c-2.36-0.5-3.99-1.95-4.75-4.21
		c-0.89-2.65-0.85-5.33,0.23-7.93c1.43-3.42,4.63-4.58,7.75-3.81c2.07,0.51,3.24,2,3.9,3.95c0.43,1.26,0.43,2.58,0.41,3.89
		c0,0.3-0.13,0.4-0.41,0.39c-0.2-0.01-0.4,0-0.6,0c-3.22,0-6.44,0-9.66,0c-0.65,0-0.71,0.02-0.62,0.65c0.13,0.9,0.24,1.82,0.56,2.66
		c0.81,2.15,2.5,3.16,4.75,3.27c1.64,0.08,3.24-0.15,4.76-0.78C442.78,83.62,442.95,83.58,443.18,83.5z M432.72,76.58
		c0.28,0,0.55,0,0.83,0c2.62,0,5.23,0,7.85,0c0.11,0,0.23-0.01,0.34,0c0.39,0.05,0.6-0.07,0.54-0.51c-0.07-0.53-0.09-1.08-0.2-1.6
		c-0.56-2.79-2.81-4.18-5.58-3.55C434.44,71.39,432.66,73.56,432.72,76.58z"/>
	<path class="st0" d="M292.9,83.03c-0.22,0.24-0.35,0.38-0.47,0.52c-1.8,2.11-4.11,2.65-6.72,2.07c-1.35-0.3-2.39-1.09-2.87-2.43
		c-0.77-2.17-0.3-4.51,2.09-5.74c1.56-0.8,3.24-1.02,4.96-1.04c0.91-0.01,1.82-0.08,2.73-0.11c0.29-0.01,0.42-0.12,0.39-0.41
		c-0.12-0.96-0.13-1.94-0.38-2.86c-0.37-1.41-1.51-2.15-3.09-2.24c-1.39-0.07-2.71,0.25-3.99,0.78c-0.29,0.12-0.57,0.24-0.85,0.36
		c-0.06-0.03-0.13-0.05-0.15-0.09c-0.63-1.43-0.67-1.08,0.65-1.6c1.7-0.66,3.46-0.93,5.27-0.66c1.83,0.27,3.11,1.23,3.6,3.06
		c0.17,0.63,0.28,1.29,0.29,1.93c0.03,3.42,0.01,6.84,0.02,10.26c0,0.69,0.07,0.67-0.71,0.69c-0.35,0.01-0.42-0.18-0.46-0.47
		C293.12,84.42,293.01,83.78,292.9,83.03z M292.92,78.91c-0.01,0-0.02,0-0.03,0c0-0.31-0.02-0.63,0-0.94
		c0.02-0.36-0.17-0.43-0.47-0.42c-0.88,0.04-1.77,0.01-2.64,0.11c-1.12,0.14-2.26,0.29-3.34,0.61c-1.73,0.51-2.42,1.59-2.34,3.38
		c0.05,1.35,0.8,2.34,2.11,2.64c0.63,0.14,1.3,0.2,1.94,0.15c2.34-0.19,4.15-1.46,4.65-4.1C292.9,79.88,292.88,79.39,292.92,78.91z"
		/>
	<path class="st0" d="M317.95,83.05c-0.44,0.44-0.76,0.76-1.06,1.08c-1.88,1.98-5.09,2-6.84,1.26c-1.53-0.65-2.32-1.84-2.47-3.5
		c-0.24-2.69,1.25-4.06,3.06-4.76c1.12-0.44,2.3-0.65,3.5-0.7c1.17-0.05,2.33-0.1,3.5-0.13c0.3-0.01,0.41-0.11,0.39-0.4
		c-0.07-0.79-0.05-1.6-0.21-2.38c-0.36-1.77-1.5-2.67-3.32-2.74c-1.37-0.05-2.66,0.26-3.91,0.78c-0.29,0.12-0.57,0.25-0.86,0.38
		c-0.04-0.02-0.12-0.04-0.13-0.08c-0.59-1.41-0.79-1.06,0.68-1.64c1.67-0.65,3.41-0.9,5.2-0.65c1.87,0.27,3.16,1.24,3.64,3.12
		c0.15,0.6,0.27,1.23,0.27,1.85c0.03,3.45,0.01,6.9,0.01,10.35c0,0.57-0.37,0.82-0.92,0.59c-0.12-0.05-0.21-0.25-0.23-0.4
		C318.13,84.48,318.06,83.86,317.95,83.05z M316.16,77.62c0-0.01,0-0.03,0-0.04c-0.88,0.07-1.76,0.09-2.63,0.24
		c-0.89,0.15-1.8,0.33-2.62,0.68c-1.69,0.73-2.33,2.87-1.44,4.48c0.25,0.46,0.6,0.81,1.08,1.06c0.82,0.43,1.69,0.5,2.57,0.43
		c2.22-0.18,3.77-1.24,4.5-3.21c0.4-1.1,0.31-2.24,0.31-3.38c0-0.27-0.18-0.33-0.4-0.32C317.06,77.57,316.61,77.6,316.16,77.62z"/>
	<path class="st0" d="M240.55,77.63c-0.14,0.99-0.21,1.96-0.42,2.9c-0.77,3.36-3.25,5.3-6.69,5.3c-2.94,0-5.2-1.49-6.26-4.28
		c-1.01-2.68-1-5.43,0.06-8.09c1.14-2.86,3.61-4.2,6.85-4c3.45,0.22,5.34,2.42,6.03,5.23C240.35,75.66,240.41,76.66,240.55,77.63z
		 M238.94,77.69c-0.05-1.22-0.15-2.41-0.59-3.54c-0.71-1.8-1.95-2.97-3.92-3.27c-2.74-0.42-5.05,0.75-5.92,3.53
		c-0.66,2.12-0.66,4.26-0.01,6.38c0.3,0.97,0.79,1.83,1.56,2.5c2.69,2.3,6.91,1.25,8.23-2.04C238.75,80.1,238.87,78.89,238.94,77.69
		z"/>
	<path class="st0" d="M520.21,77.64c-0.03,1.33-0.2,2.62-0.67,3.86c-1.09,2.88-3.42,4.41-6.56,4.33c-3.05-0.07-5.33-1.75-6.28-4.73
		c-0.73-2.31-0.74-4.67-0.01-6.97c1.07-3.39,3.81-4.92,7.25-4.64c3.85,0.32,5.54,3.12,6.02,5.87
		C520.09,76.11,520.13,76.88,520.21,77.64z M507.68,77.58c0.11,0.84,0.16,1.7,0.33,2.53c0.31,1.5,1.01,2.78,2.34,3.63
		c3.03,1.93,6.97,0.29,7.91-3.26c0.44-1.68,0.49-3.38,0.15-5.08c-0.53-2.59-2.04-4.29-4.5-4.56c-2.52-0.28-4.56,0.72-5.55,3.13
		C507.88,75.12,507.75,76.34,507.68,77.58z"/>
	<path class="st0" d="M554.46,77.82c-0.12,0.85-0.19,1.88-0.43,2.86c-0.83,3.31-3.3,5.18-6.72,5.15c-2.92-0.02-5.22-1.58-6.22-4.34
		c-0.9-2.48-0.93-5.03-0.1-7.53c1.08-3.25,3.74-4.73,7.1-4.49c3.62,0.25,5.54,2.79,6.1,5.79C554.34,76.04,554.36,76.84,554.46,77.82
		z M541.98,77.66c0.03,1.2,0.13,2.38,0.59,3.51c0.57,1.41,1.46,2.51,2.95,3c2.51,0.82,5.9,0.25,6.98-3.69
		c0.47-1.7,0.48-3.44,0.13-5.16c-0.52-2.58-2-4.12-4.41-4.46c-2.5-0.35-4.65,0.63-5.66,3.2C542.11,75.22,542.01,76.43,541.98,77.66z
		"/>
	<path class="st0" d="M581.67,91.09c0.41,0.06,0.71,0.1,1.02,0.15c1.53,0.24,2.56-0.2,3.25-1.59c0.62-1.24,1.11-2.55,1.6-3.85
		c0.09-0.25-0.02-0.61-0.13-0.89c-1.87-4.91-3.75-9.82-5.63-14.73c-0.04-0.11-0.07-0.21-0.12-0.36c0.16-0.02,0.29-0.05,0.43-0.06
		c1.05-0.03,1.05-0.03,1.43,0.96c1.64,4.36,3.27,8.72,4.93,13.14c0.09-0.18,0.2-0.35,0.27-0.54c1.59-4.26,3.16-8.52,4.76-12.77
		c0.36-0.96,0.09-0.77,1.21-0.8c0.17,0,0.34,0,0.6,0c-0.1,0.28-0.16,0.51-0.25,0.73c-2.31,5.99-4.62,11.98-6.94,17.97
		c-0.31,0.79-0.66,1.58-1.09,2.31c-1.21,2.05-3.27,2.15-5,1.65c-0.14-0.04-0.28-0.26-0.31-0.41
		C581.63,91.73,581.67,91.45,581.67,91.09z"/>
	<path class="st0" d="M399.81,35.6c0.09-0.03,0.14-0.07,0.19-0.07c1.25-0.07,1.25-0.07,1.68,1.1c1.56,4.24,3.12,8.48,4.68,12.72
		c0.03,0.07,0.09,0.13,0.19,0.29c0.11-0.21,0.2-0.36,0.26-0.53c1.57-4.23,3.14-8.47,4.71-12.71c0.33-0.89,0.34-0.89,1.32-0.88
		c0.14,0,0.28,0,0.5,0c-0.05,0.18-0.07,0.31-0.11,0.42c-2.37,6.15-4.74,12.31-7.12,18.46c-0.24,0.61-0.52,1.2-0.82,1.78
		c-1.13,2.26-3.16,2.54-5.14,2.05c-0.25-0.06-0.39-0.19-0.37-0.48c0.02-0.25,0-0.5,0-0.86c0.35,0.05,0.65,0.08,0.94,0.12
		c1.56,0.25,2.54-0.14,3.27-1.55c0.64-1.26,1.13-2.6,1.63-3.93c0.08-0.22-0.02-0.55-0.12-0.8c-1.06-2.82-2.14-5.63-3.22-8.45
		c-0.79-2.07-1.58-4.14-2.36-6.22C399.89,35.91,399.86,35.75,399.81,35.6z"/>
	<path class="st0" d="M227.54,37.68c0.69-0.94,1.45-1.58,2.4-1.93c1.59-0.58,3.23-0.7,4.87-0.33c1.96,0.45,3.07,1.77,3.43,3.71
		c0.12,0.67,0.18,1.36,0.18,2.04c0.02,3.14,0.01,6.27,0.01,9.41c0,0.76,0.06,0.71-0.67,0.71c-0.03,0-0.06,0-0.09,0
		c-0.75,0-0.75,0-0.75-0.73c0-3.25,0-6.5,0-9.75c0-0.75-0.1-1.47-0.37-2.17c-0.34-0.88-0.96-1.48-1.85-1.76
		c-1.71-0.54-3.38-0.39-4.98,0.4c-0.85,0.42-1.41,1.14-1.74,2.03c-0.33,0.92-0.51,1.86-0.51,2.84c0,2.82,0,5.65,0,8.47
		c0,0.77,0.02,0.67-0.7,0.67c-0.09,0-0.17,0-0.26,0c-0.54-0.02-0.55-0.02-0.55-0.59c0-3.17,0-6.33,0-9.5c0-1.68,0-3.37,0-5.05
		c0-0.62,0.01-0.62,0.58-0.63c0.68-0.01,0.67-0.01,0.77,0.66C227.38,36.63,227.45,37.08,227.54,37.68z"/>
	<path class="st0" d="M497.35,49.37c-0.38,0.33-0.75,0.68-1.16,0.99c-0.86,0.66-1.84,0.98-2.91,1.14c-1.26,0.18-2.5,0.16-3.72-0.22
		c-1.31-0.41-2.24-1.26-2.66-2.56c-0.26-0.8-0.45-1.66-0.46-2.5c-0.05-3.34-0.02-6.67-0.02-10.01c0-0.75-0.06-0.68,0.69-0.69
		c0.14,0,0.29,0.01,0.43,0c0.25-0.01,0.36,0.1,0.35,0.35c-0.01,0.2,0,0.4,0,0.6c0,3.08-0.01,6.16,0.01,9.24
		c0,0.57,0.04,1.14,0.15,1.7c0.36,1.69,1.32,2.59,3.01,2.79c0.99,0.12,1.99,0.06,2.97-0.2c1.88-0.5,2.84-1.8,3.16-3.63
		c0.12-0.7,0.17-1.41,0.18-2.12c0.02-2.68,0.01-5.36,0.01-8.04c0-0.75-0.06-0.69,0.69-0.69c0.14,0,0.29,0.01,0.43,0
		c0.25-0.01,0.37,0.1,0.35,0.35c-0.01,0.2,0,0.4,0,0.6c0,4.65,0,9.3,0,13.95c0,0.17-0.01,0.34,0,0.51c0.01,0.26-0.11,0.37-0.35,0.36
		c-0.14,0-0.29-0.01-0.43,0c-0.34,0.03-0.52-0.07-0.53-0.46C497.51,50.33,497.41,49.82,497.35,49.37z"/>
	<path class="st0" d="M525.7,71.9c0.73-0.91,1.46-1.58,2.43-1.92c1.77-0.63,3.57-0.74,5.36-0.18c1.38,0.43,2.28,1.39,2.7,2.75
		c0.21,0.7,0.36,1.45,0.37,2.18c0.04,3.39,0.02,6.79,0.02,10.18c0,0.61-0.01,0.61-0.58,0.62c-0.09,0-0.17,0-0.26,0
		c-0.61-0.01-0.62-0.01-0.62-0.6c-0.01-1.23,0-2.45,0-3.68c0-2.03,0.02-4.05-0.01-6.08c-0.01-0.68-0.09-1.37-0.27-2.02
		c-0.33-1.2-1.17-1.92-2.38-2.19c-1.28-0.29-2.56-0.19-3.79,0.2c-1.79,0.58-2.58,1.97-2.85,3.71c-0.12,0.76-0.16,1.53-0.17,2.3
		c-0.02,2.54-0.01,5.08-0.01,7.62c0,0.83,0.08,0.73-0.72,0.74c-0.14,0-0.3,0.04-0.42-0.01c-0.13-0.05-0.26-0.18-0.3-0.3
		c-0.05-0.15-0.01-0.34-0.01-0.51c0-4.71,0-9.41,0-14.12c0-0.17-0.04-0.36,0.01-0.51c0.04-0.12,0.18-0.27,0.3-0.3
		c0.19-0.05,0.4,0,0.6-0.02c0.3-0.02,0.38,0.12,0.4,0.4C525.52,70.68,525.61,71.21,525.7,71.9z"/>
	<path class="st0" d="M340.26,71.83c0.12-0.1,0.2-0.14,0.25-0.21c0.82-1.13,1.96-1.72,3.29-1.98c1.03-0.2,2.08-0.24,3.14-0.1
		c2.73,0.36,3.75,2.1,4.09,4.04c0.09,0.53,0.11,1.08,0.12,1.62c0.01,3.19,0.01,6.39,0,9.58c0,0.75,0,0.75-0.73,0.75
		c-0.14,0-0.3,0.04-0.42-0.01c-0.12-0.05-0.26-0.18-0.29-0.29c-0.05-0.19-0.01-0.4-0.01-0.6c0-3.14,0.01-6.27-0.01-9.41
		c0-0.51-0.06-1.03-0.15-1.52c-0.32-1.65-1.17-2.47-2.81-2.78c-1.06-0.2-2.09-0.1-3.13,0.15c-1.77,0.44-2.78,1.62-3.12,3.35
		c-0.18,0.94-0.25,1.92-0.26,2.89c-0.03,2.48-0.01,4.96-0.01,7.44c0,0.84,0.08,0.79-0.78,0.79c-0.71,0-0.69,0.09-0.69-0.69
		c0-4.82,0-9.64,0.01-14.46c0-0.2,0.07-0.57,0.15-0.58c0.33-0.06,0.68-0.04,1.01,0.02c0.08,0.01,0.13,0.29,0.16,0.45
		C340.13,70.77,340.19,71.27,340.26,71.83z"/>
	<path class="st0" d="M310.3,37.62c2.19-2.55,4.9-2.81,7.78-2.03c1.93,0.52,2.75,2.09,3.01,3.96c0.09,0.62,0.1,1.25,0.1,1.87
		c0.01,3.02,0,6.04,0,9.06c0,0.85,0.09,0.8-0.76,0.8c-0.73,0-0.7,0.1-0.7-0.67c0-3.19,0.02-6.39-0.02-9.58
		c-0.01-0.76-0.15-1.53-0.34-2.26c-0.21-0.8-0.73-1.43-1.52-1.74c-1.98-0.78-3.9-0.63-5.72,0.48c-0.63,0.38-1.02,0.97-1.31,1.64
		c-0.49,1.12-0.58,2.31-0.58,3.51c-0.01,2.62,0,5.24,0,7.87c0,0.83,0.05,0.76-0.8,0.76c-0.11,0-0.25,0.04-0.34-0.01
		c-0.12-0.06-0.27-0.16-0.31-0.28c-0.05-0.15-0.01-0.34-0.01-0.51c0-4.73,0-9.46,0-14.19c0-0.17-0.03-0.35,0.01-0.51
		c0.03-0.1,0.15-0.22,0.25-0.25c0.16-0.04,0.34,0,0.51-0.02c0.36-0.04,0.52,0.11,0.55,0.47C310.15,36.51,310.22,37.03,310.3,37.62z"
		/>
	<path class="st0" d="M383.03,71.85c2.06-2.47,4.66-2.75,7.45-2.15c1.99,0.43,3.02,1.87,3.35,4.06c0.1,0.64,0.1,1.3,0.11,1.96
		c0.01,3.02,0.01,6.04,0,9.07c0,0.74-0.01,0.74-0.74,0.74c-0.14,0-0.3,0.04-0.42-0.01c-0.12-0.05-0.25-0.18-0.29-0.3
		c-0.05-0.19-0.01-0.4-0.01-0.6c0-3.11,0.02-6.21-0.02-9.32c-0.01-0.76-0.14-1.53-0.34-2.26c-0.3-1.11-1.13-1.77-2.21-2.05
		c-1.33-0.33-2.66-0.24-3.96,0.19c-1.21,0.4-2.03,1.22-2.47,2.42c-0.38,1.03-0.49,2.1-0.49,3.19c0,2.65,0,5.3,0,7.95
		c0,0.85,0.08,0.79-0.77,0.79c-0.14,0-0.3,0.03-0.42-0.01c-0.1-0.03-0.23-0.14-0.25-0.25c-0.04-0.16-0.01-0.34-0.01-0.51
		c0-4.76,0-9.52,0-14.28c0-0.14-0.04-0.3,0.01-0.42c0.05-0.12,0.18-0.25,0.3-0.28c0.16-0.05,0.34,0,0.51-0.02
		c0.34-0.04,0.45,0.14,0.48,0.44C382.88,70.72,382.96,71.25,383.03,71.85z"/>
	<path class="st0" d="M431.49,35.52c0.1,0.69,0.2,1.33,0.29,1.97c0.09,0,0.16,0.02,0.18,0c0.85-1.17,2.03-1.8,3.42-2.07
		c1.15-0.23,2.32-0.29,3.48-0.04c2.18,0.47,3.44,1.79,3.76,4.37c0.03,0.25,0.03,0.51,0.03,0.77c0,3.34,0,6.67,0,10.01
		c0,0.24-0.02,0.68-0.11,0.7c-0.38,0.08-0.78,0.05-1.17,0.04c-0.05,0-0.11-0.18-0.12-0.28c-0.02-0.2-0.01-0.4-0.01-0.6
		c0-3.11,0.02-6.22-0.01-9.32c-0.01-0.73-0.13-1.48-0.32-2.18c-0.29-1.06-1.02-1.75-2.1-2.05c-1.51-0.42-2.99-0.3-4.43,0.27
		c-1.1,0.44-1.79,1.28-2.18,2.38c-0.32,0.89-0.43,1.83-0.43,2.77c0,2.74,0,5.47,0,8.21c0,0.92,0.12,0.84-0.89,0.84
		c-0.11,0-0.24,0.03-0.34-0.01c-0.1-0.05-0.22-0.16-0.24-0.26c-0.04-0.16-0.01-0.34-0.01-0.51c0-4.73,0-9.47,0-14.2
		c0-0.11,0.01-0.23,0-0.34c-0.04-0.33,0.08-0.48,0.43-0.44C430.92,35.54,431.15,35.52,431.49,35.52z"/>
	<path class="st0" d="M381.82,37.42c-1.25-0.28-2.43-0.58-3.62-0.8c-1.06-0.19-2.11-0.03-3.12,0.31c-0.9,0.3-1.68,0.81-1.76,1.88
		c-0.08,1.02,0.34,1.86,1.24,2.36c0.82,0.45,1.68,0.82,2.54,1.2c0.96,0.42,1.95,0.79,2.92,1.2c0.31,0.13,0.6,0.33,0.89,0.51
		c2.6,1.62,2.2,5.53-0.52,6.77c-1.03,0.47-2.11,0.68-3.22,0.73c-1.72,0.08-3.41-0.05-5.04-0.65c-0.7-0.26-0.7-0.26-0.7-1.03
		c0-0.25,0-0.51,0-0.81c0.74,0.26,1.41,0.53,2.11,0.73c1.82,0.5,3.65,0.61,5.48,0.07c0.38-0.11,0.75-0.29,1.07-0.51
		c1.4-0.96,1.53-2.79,0.21-3.86c-0.65-0.53-1.44-0.91-2.21-1.26c-1.11-0.51-2.28-0.89-3.39-1.39c-0.54-0.24-1.05-0.58-1.52-0.93
		c-1.86-1.4-2-4.76,0.79-6.04c1.08-0.5,2.24-0.65,3.41-0.66c1.49-0.02,2.95,0.23,4.36,0.73c0.6,0.21,0.61,0.25,0.37,0.85
		C382,37.04,381.89,37.27,381.82,37.42z"/>
	<path class="st0" d="M471.4,83.29c1.32,0.63,2.66,1.01,4.05,1.13c1.35,0.12,2.68,0.03,3.94-0.49c1.31-0.54,1.9-1.67,1.58-2.94
		c-0.13-0.51-0.38-0.97-0.82-1.26c-0.69-0.44-1.39-0.89-2.13-1.22c-1.03-0.47-2.12-0.82-3.17-1.26c-0.9-0.38-1.73-0.86-2.36-1.64
		c-1.33-1.63-0.97-4,0.78-5.15c0.85-0.56,1.81-0.81,2.81-0.92c1.96-0.22,3.85,0.05,5.7,0.72c0.37,0.13,0.45,0.29,0.27,0.62
		c-0.07,0.12-0.11,0.26-0.17,0.39c-0.23,0.49-0.23,0.51-0.74,0.32c-1.35-0.5-2.73-0.86-4.17-0.75c-0.78,0.06-1.6,0.2-2.32,0.48
		c-1.74,0.69-2,2.81-0.46,3.88c0.87,0.61,1.91,0.98,2.89,1.43c0.96,0.43,1.94,0.8,2.9,1.22c0.36,0.16,0.69,0.4,1.02,0.62
		c2.32,1.55,1.92,5.33-0.58,6.54c-0.86,0.42-1.76,0.67-2.69,0.76c-1.86,0.18-3.7,0.07-5.49-0.5c-0.91-0.29-0.91-0.31-0.9-1.25
		C471.36,83.79,471.38,83.56,471.4,83.29z"/>
	<path class="st0" d="M407.62,71.73c-0.59-0.19-1.15-0.39-1.71-0.55c-1.36-0.37-2.74-0.54-4.14-0.25c-0.44,0.09-0.89,0.21-1.3,0.41
		c-1.57,0.75-1.8,2.66-0.46,3.78c0.3,0.25,0.65,0.47,1.01,0.63c1.36,0.58,2.74,1.1,4.09,1.7c0.72,0.32,1.43,0.72,2.06,1.19
		c2.06,1.57,1.44,4.8-0.12,5.9c-0.99,0.7-2.07,1.06-3.25,1.18c-1.91,0.2-3.81,0.12-5.65-0.51c-0.9-0.31-0.9-0.31-0.89-1.24
		c0-0.22,0.02-0.45,0.03-0.72c1.29,0.59,2.58,0.99,3.96,1.12c1.18,0.11,2.33,0.06,3.47-0.26c0.3-0.08,0.59-0.21,0.87-0.35
		c1.75-0.93,1.93-3.01,0.36-4.21c-0.87-0.67-1.88-1.05-2.89-1.44c-0.87-0.34-1.77-0.64-2.6-1.07c-0.65-0.33-1.3-0.73-1.82-1.25
		c-1.66-1.66-1.23-4.39,0.82-5.53c0.81-0.45,1.69-0.66,2.6-0.76c1.94-0.22,3.8,0.07,5.63,0.7c0.34,0.12,0.48,0.27,0.31,0.62
		C407.86,71.12,407.75,71.41,407.62,71.73z"/>
	<path class="st0" d="M456.4,37.42c-1.24-0.28-2.42-0.6-3.62-0.79c-1.17-0.19-2.34-0.04-3.43,0.44c-1.78,0.78-2.03,2.84-0.42,3.94
		c0.86,0.58,1.87,0.95,2.82,1.38c1.03,0.47,2.09,0.89,3.13,1.35c0.28,0.13,0.54,0.32,0.8,0.49c2.24,1.49,1.91,5.14-0.25,6.38
		c-0.94,0.53-1.93,0.83-2.99,0.93c-1.77,0.18-3.53,0.07-5.25-0.42c-0.16-0.05-0.33-0.1-0.48-0.17c-0.84-0.36-0.68-0.23-0.7-1.04
		c0-0.25,0-0.51,0-0.83c0.53,0.2,0.99,0.39,1.46,0.55c1.96,0.65,3.94,0.86,5.96,0.3c0.35-0.1,0.7-0.23,1.02-0.41
		c1.6-0.91,1.79-2.92,0.33-4.06c-0.64-0.5-1.4-0.86-2.15-1.2c-1.01-0.45-2.06-0.81-3.09-1.24c-0.82-0.34-1.57-0.79-2.19-1.44
		c-1.57-1.64-1.22-4.28,0.73-5.44c1.06-0.63,2.22-0.84,3.43-0.89c1.7-0.07,3.34,0.18,4.94,0.77c0.36,0.13,0.44,0.3,0.27,0.63
		c-0.09,0.18-0.15,0.37-0.23,0.55C456.47,37.3,456.42,37.4,456.4,37.42z"/>
	<path class="st0" d="M219.51,78.22c0-2.17,0-4.33,0-6.5c0-0.66-0.01-0.67-0.64-0.68c-0.6-0.01-1.2-0.01-1.79,0
		c-0.25,0-0.46-0.03-0.47-0.35c-0.01-0.3,0-0.56,0.41-0.61c0.62-0.09,1.23-0.22,1.85-0.33c0.64-0.11,0.63-0.11,0.66-0.74
		c0.04-0.85,0.02-1.72,0.17-2.55c0.48-2.65,1.78-3.66,4.59-3.64c0.65,0,1.29,0.17,1.94,0.25c0.37,0.04,0.49,0.23,0.39,0.58
		c-0.02,0.08-0.04,0.17-0.06,0.25c-0.16,0.58-0.15,0.57-0.74,0.45c-0.86-0.17-1.72-0.32-2.62-0.13c-1,0.21-1.6,0.8-1.9,1.75
		c-0.35,1.14-0.31,2.3-0.31,3.47c0,0.29,0.17,0.32,0.39,0.31c0.8,0,1.6,0,2.39,0c0.2,0,0.4,0.01,0.6,0
		c0.26-0.01,0.35,0.12,0.34,0.37c-0.01,0.14-0.01,0.29,0,0.43c0.04,0.37-0.12,0.51-0.49,0.51c-0.83-0.01-1.65-0.01-2.48,0
		c-0.74,0-0.75,0.01-0.75,0.74c0,4.1,0,8.21,0,12.31c0,0.23,0,0.46,0,0.68c0,0.82,0.07,0.74-0.72,0.74c-0.86,0-0.76,0.04-0.76-0.8
		C219.51,82.55,219.51,80.39,219.51,78.22z"/>
	<path class="st0" d="M422.74,83.87c1.7-4.5,3.36-8.88,5.01-13.26c0.06-0.16,0.13-0.32,0.18-0.48c0.09-0.27,0.24-0.42,0.57-0.38
		c0.34,0.03,0.68,0.01,1.11,0.01c-0.51,1.33-0.99,2.59-1.47,3.85c-1.44,3.74-2.89,7.47-4.35,11.21c-0.1,0.25-0.24,0.62-0.42,0.67
		c-0.4,0.1-0.85,0.07-1.26-0.01c-0.14-0.03-0.24-0.36-0.32-0.56c-0.84-2.17-1.68-4.35-2.52-6.52c-1.09-2.84-2.19-5.67-3.28-8.5
		c0.06-0.04,0.1-0.1,0.14-0.1c1.32-0.08,1.34-0.09,1.81,1.16c1.48,3.91,2.94,7.82,4.41,11.73C422.47,83.03,422.58,83.4,422.74,83.87
		z"/>
	<path class="st0" d="M329.73,35.57c1.46-0.12,1.47-0.12,1.94,1.13c1.47,3.88,2.94,7.76,4.4,11.65c0.15,0.39,0.26,0.8,0.44,1.36
		c0.13-0.31,0.21-0.46,0.27-0.63c1.63-4.37,3.25-8.74,4.87-13.11c0.13-0.35,0.3-0.51,0.68-0.46c0.31,0.04,0.62,0.01,1.02,0.01
		c-0.26,0.7-0.48,1.33-0.73,1.95c-1.68,4.35-3.36,8.69-5.05,13.04c-0.1,0.26-0.2,0.66-0.38,0.71c-0.39,0.12-0.85,0.08-1.26,0.03
		c-0.12-0.01-0.25-0.27-0.32-0.44c-0.56-1.4-1.11-2.8-1.65-4.21c-1.35-3.5-2.7-7-4.05-10.5C329.85,35.95,329.8,35.79,329.73,35.57z"
		/>
	<path class="st0" d="M510.31,50.13c0.11,1.17,0.23,1.17-0.94,1.36c-0.91,0.15-1.81,0.18-2.72-0.01c-1.72-0.36-2.53-1.54-2.75-3.36
		c-0.05-0.37-0.03-0.74-0.03-1.11c0-3.05,0-6.1,0-9.15c0-0.2-0.01-0.4,0-0.6c0.02-0.3-0.11-0.41-0.4-0.4
		c-0.48,0.01-0.97,0.01-1.45,0c-0.2-0.01-0.47,0.1-0.52-0.26c-0.07-0.44,0.02-0.63,0.43-0.75c0.46-0.14,0.92-0.29,1.39-0.4
		c0.37-0.09,0.57-0.24,0.63-0.66c0.12-0.84,0.32-1.68,0.5-2.51c0.04-0.18,0.12-0.41,0.26-0.49c0.33-0.2,0.65,0.03,0.65,0.43
		c0.01,1.08,0,2.15,0,3.3c1.14,0,2.22,0,3.3,0c0.23,0,0.46,0,0.68,0c0.64,0.01,0.63,0.01,0.64,0.66c0,0.74,0,0.68-0.72,0.67
		c-1.14,0-2.28,0.01-3.42-0.01c-0.36,0-0.49,0.12-0.49,0.49c0.01,3.31,0.01,6.61,0.01,9.92c0,0.23,0.04,0.45,0.07,0.68
		c0.2,1.45,1.03,2.41,2.62,2.33C508.79,50.23,509.52,50.18,510.31,50.13z"/>
	<path class="st0" d="M353.68,71.05c-0.07-0.87-0.07-0.86,0.62-1.08c0.56-0.17,1.27-0.22,1.63-0.6c0.33-0.35,0.29-1.07,0.41-1.62
		c0.1-0.47,0.19-0.95,0.26-1.43c0.06-0.34,0.28-0.37,0.56-0.36c0.35,0.01,0.32,0.25,0.32,0.48c0,1.08,0,2.15,0,3.31
		c0.93,0,1.81,0,2.69,0c0.51,0,1.03,0.01,1.54,0c0.29-0.01,0.42,0.1,0.4,0.39c-0.01,0.14-0.01,0.29,0,0.43
		c0.04,0.39-0.16,0.49-0.51,0.48c-0.88-0.01-1.77-0.01-2.65,0c-0.45,0.01-0.9,0.04-1.35,0.07c-0.04,0.47-0.11,0.94-0.11,1.42
		c-0.01,2.79-0.02,5.58,0.01,8.37c0.01,0.68,0.08,1.37,0.27,2.02c0.26,0.93,0.94,1.51,1.93,1.54c0.9,0.03,1.81-0.05,2.73-0.08
		c0.01,0.01,0.06,0.06,0.06,0.11c0.05,1.04,0.04,1.03-1,1.22c-0.91,0.16-1.8,0.17-2.71-0.01c-1.34-0.27-2.18-1.08-2.53-2.36
		c-0.17-0.62-0.23-1.29-0.23-1.94c-0.02-3.08-0.01-6.15-0.01-9.23c0-0.17,0-0.34,0-0.51c-0.02-0.58-0.02-0.59-0.64-0.59
		C354.82,71.04,354.28,71.05,353.68,71.05z"/>
	<path class="st0" d="M299.19,71.05c-0.68,0-1.25,0.01-1.82,0c-0.24,0-0.54,0.09-0.55-0.33c-0.01-0.35,0.02-0.59,0.45-0.67
		c0.47-0.08,0.92-0.31,1.4-0.39c0.42-0.07,0.55-0.29,0.62-0.67c0.17-0.89,0.38-1.78,0.54-2.68c0.05-0.3,0.19-0.36,0.46-0.36
		c0.28,0,0.41,0.09,0.41,0.39c-0.01,0.91,0,1.83,0,2.74c0,0.66-0.07,0.67,0.63,0.66c1.14,0,2.28-0.01,3.42,0
		c0.56,0,0.56,0.01,0.57,0.56c0,0.09-0.01,0.17,0,0.26c0.05,0.38-0.13,0.49-0.49,0.48c-1.05-0.02-2.11-0.01-3.17-0.01
		c-1.09,0.01-0.96-0.15-0.97,0.94c-0.01,2.99-0.01,5.99,0.01,8.98c0,0.59,0.06,1.2,0.21,1.77c0.28,1.12,0.99,1.66,2.15,1.74
		c0.42,0.03,0.86,0.01,1.28-0.02c0.42-0.03,0.84-0.1,1.24-0.16c0.04,0.07,0.1,0.12,0.1,0.17c0.04,1.05,0.04,1.05-0.98,1.23
		c-0.96,0.17-1.93,0.19-2.88-0.05c-1.13-0.28-1.96-0.96-2.28-2.09c-0.21-0.73-0.33-1.51-0.34-2.26c-0.04-3.11-0.02-6.22-0.02-9.33
		C299.19,71.7,299.19,71.42,299.19,71.05z"/>
	<path class="st0" d="M399.19,50.08c0.07,0.07,0.11,0.09,0.11,0.11c0,1.1,0.26,1.09-1,1.29c-0.97,0.16-1.93,0.19-2.88-0.06
		c-1.13-0.29-1.95-0.97-2.26-2.11c-0.2-0.76-0.33-1.57-0.34-2.35c-0.04-3.05-0.02-6.1-0.02-9.15c0-0.17-0.01-0.34,0-0.51
		c0.03-0.32-0.07-0.47-0.43-0.45c-0.48,0.03-0.97,0.01-1.45,0.01c-0.2,0-0.44,0.03-0.43-0.26c0.01-0.28-0.16-0.64,0.32-0.75
		c0.5-0.11,0.98-0.32,1.48-0.41c0.42-0.07,0.55-0.3,0.62-0.67c0.16-0.87,0.36-1.73,0.52-2.59c0.06-0.3,0.17-0.44,0.5-0.43
		c0.3,0.01,0.39,0.12,0.38,0.41c-0.01,0.86-0.01,1.71,0,2.57c0.01,0.9-0.12,0.79,0.84,0.79c1.05,0.01,2.11,0,3.16,0
		c0.61,0,0.61,0.01,0.62,0.6c0,0.09-0.01,0.17,0,0.26c0.05,0.37-0.12,0.5-0.49,0.49c-1-0.02-2-0.01-2.99-0.01
		c-1.14,0-1.14,0-1.14,1.1c0,2.88-0.01,5.76,0.01,8.64c0,0.62,0.06,1.25,0.2,1.86c0.27,1.19,1.03,1.77,2.26,1.81
		c0.43,0.01,0.86,0,1.28-0.04C398.46,50.2,398.85,50.13,399.19,50.08z"/>
	<path class="st0" d="M249.68,50.13c0.07,1.2,0.28,1.14-1.01,1.37c-0.94,0.16-1.87,0.17-2.8-0.06c-1.11-0.27-1.92-0.93-2.25-2
		c-0.24-0.78-0.37-1.62-0.38-2.43c-0.04-3.05-0.02-6.1-0.02-9.15c0-0.2-0.01-0.4,0-0.6c0.02-0.29-0.09-0.41-0.39-0.4
		c-0.48,0.02-0.97,0.01-1.45,0c-0.22,0-0.49,0.05-0.48-0.31c0.01-0.3-0.1-0.63,0.38-0.71c0.47-0.08,0.92-0.3,1.4-0.38
		c0.45-0.08,0.6-0.34,0.67-0.73c0.17-0.87,0.39-1.72,0.52-2.59c0.06-0.38,0.25-0.37,0.52-0.38c0.26,0,0.34,0.12,0.34,0.37
		c-0.01,0.86-0.01,1.71,0,2.57c0.01,0.93-0.12,0.83,0.8,0.83c1.08,0,2.17,0,3.25,0c0.56,0,0.56,0.01,0.57,0.56
		c0,0.11-0.01,0.23,0,0.34c0.03,0.34-0.12,0.44-0.45,0.44c-1.05-0.01-2.11-0.01-3.16-0.01c-0.2,0-0.4,0.01-0.6,0
		c-0.28-0.02-0.44,0.07-0.41,0.38c0.01,0.17,0,0.34,0,0.51c0,2.94-0.01,5.87,0.01,8.81c0,0.62,0.06,1.25,0.2,1.86
		c0.28,1.24,1.03,1.84,2.31,1.85C248.04,50.27,248.84,50.18,249.68,50.13z"/>
	<path class="st0" d="M483.48,50.13c0.09,1.32,0.18,1.14-1.02,1.37c-0.85,0.16-1.69,0.15-2.55-0.01c-1.53-0.29-2.39-1.25-2.7-2.72
		c-0.13-0.64-0.18-1.3-0.19-1.95c-0.02-3.11-0.01-6.21-0.01-9.32c0-0.68,0.03-0.65-0.65-0.64c-0.4,0-0.8,0-1.2,0
		c-0.23,0-0.49,0.04-0.47-0.32c0.02-0.26-0.13-0.59,0.3-0.68c0.44-0.1,0.87-0.28,1.32-0.35c0.59-0.08,0.78-0.43,0.87-0.96
		c0.14-0.81,0.36-1.61,0.48-2.42c0.06-0.38,0.26-0.37,0.53-0.37c0.35-0.01,0.33,0.22,0.33,0.46c0,0.91-0.01,1.82,0,2.74
		c0,0.56,0.01,0.57,0.55,0.57c1.14,0.01,2.28,0,3.42,0c0.65,0,0.65,0.01,0.65,0.65c0,0.68,0,0.68-0.71,0.69
		c-1.14,0-2.28,0.01-3.42-0.01c-0.35-0.01-0.5,0.08-0.5,0.47c0.02,3.31,0.02,6.61,0.04,9.92c0,0.39,0.07,0.8,0.17,1.18
		c0.32,1.25,1.04,1.83,2.32,1.84C481.85,50.27,482.64,50.18,483.48,50.13z"/>
	<path class="st0" d="M492.66,84.31c0.08,0.08,0.11,0.1,0.11,0.12c0,1.09,0.27,1.13-1.02,1.27c-0.81,0.09-1.65,0.13-2.46,0.01
		c-1.64-0.24-2.57-1.22-2.85-2.85c-0.1-0.59-0.15-1.19-0.15-1.78c-0.01-2.93-0.01-5.87-0.01-8.8c0-1.23,0-1.23-1.28-1.23
		c-0.23,0-0.46,0-0.68,0c-0.23,0-0.4-0.08-0.39-0.34c0.01-0.24-0.11-0.53,0.27-0.62c0.47-0.11,0.93-0.27,1.4-0.37
		c0.5-0.11,0.76-0.34,0.84-0.89c0.11-0.84,0.34-1.67,0.49-2.51c0.05-0.3,0.21-0.35,0.47-0.36c0.29-0.01,0.4,0.09,0.4,0.39
		c-0.01,0.88-0.01,1.77,0,2.65c0,0.86-0.09,0.75,0.79,0.75c1.08,0.01,2.17,0.01,3.25,0c0.7-0.01,0.58,0.07,0.58,0.62
		c0,0.2,0,0.39,0,0.66c-1.54,0-3.04,0-4.58,0c-0.02,0.29-0.04,0.51-0.04,0.73c0,3.11-0.02,6.21,0.01,9.32
		c0.01,0.67,0.14,1.36,0.34,2c0.27,0.87,0.95,1.34,1.86,1.38c0.68,0.03,1.36-0.04,2.04-0.07C492.28,84.38,492.5,84.33,492.66,84.31z
		"/>
	<path class="st0" d="M467.47,50.08c0.03,0.14,0.06,0.22,0.06,0.31c0.03,0.92,0.03,0.95-0.89,1.06c-0.73,0.09-1.48,0.17-2.21,0.12
		c-1.95-0.15-3.05-1.23-3.33-3.16c-0.06-0.45-0.09-0.91-0.09-1.36c-0.01-3.14,0-6.27,0-9.41c0-0.79,0.09-0.78-0.79-0.77
		c-0.37,0-0.74,0-1.11,0c-0.21,0-0.42-0.01-0.41-0.29c0.01-0.26-0.13-0.59,0.28-0.7c0.49-0.13,0.98-0.28,1.48-0.4
		c0.4-0.1,0.61-0.29,0.67-0.73c0.12-0.87,0.34-1.73,0.5-2.6c0.05-0.28,0.18-0.38,0.46-0.38c0.27,0,0.42,0.05,0.42,0.37
		c-0.02,0.94,0,1.88-0.01,2.82c-0.01,0.63,0.08,0.58,0.55,0.58c1.17-0.01,2.34-0.01,3.51,0c0.55,0,0.55,0.01,0.56,0.55
		c0,0.11-0.01,0.23,0,0.34c0.03,0.32-0.1,0.45-0.44,0.45c-0.85-0.02-1.71-0.01-2.57-0.01c-0.31,0-0.63,0-0.94,0
		c-0.66,0.01-0.66,0.01-0.67,0.63c0,0.06,0,0.11,0,0.17c0,3.08-0.01,6.16,0.01,9.24c0,0.56,0.1,1.14,0.26,1.68
		c0.33,1.14,1,1.64,2.18,1.69c0.43,0.02,0.85,0,1.28-0.03C466.61,50.21,467,50.14,467.47,50.08z"/>
	<path class="st0" d="M270.22,38.26c0.32-0.45,0.53-0.74,0.74-1.04c1.08-1.5,2.58-2.07,4.38-1.99c0.28,0.01,0.57,0.04,0.85,0.08
		c0.98,0.13,1-0.1,0.78,1.05c-0.08,0.42-0.22,0.52-0.62,0.42c-0.27-0.07-0.56-0.09-0.84-0.12c-2.42-0.25-3.79,0.94-4.7,2.9
		c-0.47,1.02-0.58,2.13-0.58,3.25c0,2.59,0.01,5.19-0.01,7.78c0,0.23-0.06,0.65-0.16,0.66c-0.38,0.07-0.78,0.04-1.17,0.01
		c-0.05,0-0.12-0.17-0.13-0.27c-0.02-0.2-0.01-0.4-0.01-0.6c0-4.67,0-9.35,0-14.02c0-0.17,0.01-0.34,0-0.51
		c-0.02-0.27,0.12-0.35,0.36-0.34c0.14,0.01,0.29,0.01,0.43,0c0.37-0.04,0.52,0.12,0.52,0.48c0,0.37,0.01,0.74,0.03,1.11
		C270.12,37.44,270.17,37.77,270.22,38.26z"/>
	<path class="st0" d="M497.36,72.45c0.33-0.46,0.57-0.81,0.83-1.14c0.9-1.19,2.11-1.81,3.59-1.85c0.71-0.02,1.42,0.09,2.13,0.14
		c0.26,0.02,0.35,0.16,0.29,0.4c-0.02,0.11-0.06,0.22-0.08,0.33c-0.15,0.71-0.15,0.71-0.82,0.61c-0.06-0.01-0.11-0.01-0.17-0.02
		c-2.99-0.38-5.02,1.09-5.58,4.07c-0.12,0.64-0.18,1.3-0.19,1.95c-0.02,2.65-0.01,5.3-0.01,7.95c0,0.65-0.01,0.65-0.66,0.65
		c-0.17,0-0.36,0.04-0.51-0.01c-0.12-0.05-0.25-0.2-0.29-0.33c-0.05-0.16-0.01-0.34-0.01-0.51c0-4.7,0-9.41,0-14.11
		c0-0.17-0.04-0.35,0.01-0.51c0.04-0.13,0.17-0.23,0.28-0.33c0.03-0.03,0.11,0,0.17-0.01c0.8-0.04,0.81-0.03,0.85,0.75
		c0.02,0.37,0.01,0.74,0.04,1.11C497.24,71.86,497.3,72.1,497.36,72.45z"/>
	<path class="st0" d="M245.96,72.45c0.21-0.3,0.37-0.49,0.5-0.7c1.11-1.73,2.73-2.42,4.73-2.3c0.42,0.03,0.85,0.1,1.27,0.14
		c0.3,0.02,0.4,0.18,0.33,0.45c-0.07,0.33-0.15,0.66-0.23,1c-0.47-0.06-0.92-0.11-1.36-0.17c-1.72-0.23-3.06,0.41-4.05,1.8
		c-0.8,1.12-1.17,2.39-1.17,3.76c-0.01,2.73,0,5.47,0,8.2c0,0.2,0.01,0.4-0.01,0.6c-0.01,0.1-0.09,0.26-0.14,0.26
		c-0.4,0.02-0.8,0.01-1.19-0.01c-0.06,0-0.14-0.16-0.16-0.25c-0.02-0.2-0.01-0.4-0.01-0.6c0-4.67,0-9.34,0-14.01
		c0-0.17,0.01-0.34,0-0.51c-0.01-0.25,0.09-0.37,0.35-0.36c0.17,0.01,0.34,0.01,0.51,0c0.31-0.02,0.46,0.07,0.46,0.43
		c-0.01,0.57,0.02,1.14,0.05,1.71C245.83,72.04,245.89,72.19,245.96,72.45z"/>
	<path class="st0" d="M363.04,38.36c0.84-1.26,1.63-2.41,3.06-2.86c1.26-0.41,2.52-0.24,3.89-0.06c-0.1,0.49-0.19,0.94-0.27,1.35
		c-0.81-0.06-1.54-0.18-2.27-0.15c-1.56,0.06-2.63,0.94-3.42,2.22c-0.76,1.23-0.94,2.61-0.96,4.02c-0.03,2.59-0.01,5.19-0.01,7.78
		c0,0.67,0.03,0.64-0.66,0.64c-0.82-0.01-0.76,0.07-0.76-0.71c0-0.03,0-0.06,0-0.09c0-4.73,0-9.46,0-14.2c0-0.11,0.01-0.23,0-0.34
		c-0.04-0.33,0.09-0.48,0.43-0.44c0.14,0.02,0.29,0.02,0.43,0c0.31-0.03,0.37,0.14,0.39,0.41
		C362.92,36.69,362.98,37.45,363.04,38.36z"/>
	<path class="st0" d="M333.42,74.98c0,3.28,0,6.55,0,9.83c0,0.8,0.07,0.71-0.74,0.72c-0.88,0-0.76,0.01-0.76-0.8
		c0-6.52,0-13.04,0-19.56c0-0.17,0.01-0.34,0-0.51c-0.01-0.26,0.14-0.32,0.37-0.34c1.13-0.1,1.14-0.1,1.14,1.02
		C333.42,68.54,333.42,71.76,333.42,74.98z"/>
	<path class="st0" d="M423.45,40.68c0-3.22,0-6.44,0-9.65c0-0.2-0.01-0.4,0.01-0.6c0.01-0.1,0.09-0.27,0.14-0.27
		c0.4-0.03,0.79-0.03,1.19-0.01c0.06,0,0.15,0.16,0.16,0.25c0.03,0.2,0.01,0.4,0.01,0.6c0,6.47,0,12.93,0,19.4
		c0,0.14-0.01,0.29,0,0.43c0.05,0.39-0.15,0.51-0.5,0.47c-0.03,0-0.06,0-0.09,0c-1.1-0.01-0.92,0.11-0.93-0.87
		C423.45,47.17,423.45,43.92,423.45,40.68z"/>
	<path class="st0" d="M219.21,40.65c0-3.19,0-6.38,0-9.57c0-0.2-0.01-0.4,0.01-0.6c0.01-0.1,0.08-0.28,0.14-0.28
		c0.4-0.02,0.79-0.03,1.19,0c0.05,0,0.13,0.18,0.14,0.28c0.02,0.23,0.01,0.46,0.01,0.68c0,6.41,0,12.82,0,19.23
		c0,0.99,0.18,0.89-0.91,0.91c-0.55,0.01-0.58,0.02-0.57-0.65C219.21,47.31,219.21,43.98,219.21,40.65z"/>
	<path class="st0" d="M413.66,77.62c0,2.42,0,4.85-0.01,7.27c0,0.22,0.15,0.59-0.22,0.63c-0.38,0.05-0.78-0.02-1.17-0.06
		c-0.03,0-0.07-0.15-0.07-0.22c-0.01-0.2-0.01-0.4-0.01-0.6c0-4.67,0-9.35,0-14.02c0-0.17,0.01-0.34,0-0.51
		c-0.02-0.26,0.1-0.37,0.35-0.35c0.06,0,0.11,0,0.17,0c1.18,0.01,0.95-0.09,0.95,0.94C413.67,73,413.66,75.31,413.66,77.62z"/>
	<path class="st0" d="M472.06,43.49c0,2.36,0,4.73,0,7.09c0,0.8,0.07,0.71-0.74,0.72c-0.88,0.01-0.76,0.02-0.76-0.8
		c0-4.73,0-9.45,0-14.18c0-0.14,0.01-0.29,0-0.43c-0.02-0.24,0.07-0.38,0.33-0.37c0.11,0,0.23,0,0.34,0
		c0.97,0.01,0.83-0.1,0.83,0.79C472.06,38.7,472.06,41.1,472.06,43.49z"/>
	<path class="st0" d="M387.85,43.4c0,2.42,0,4.84,0,7.26c0,0.68,0.03,0.64-0.65,0.64c-0.17,0-0.34-0.01-0.51,0
		c-0.26,0.01-0.36-0.12-0.34-0.36c0.01-0.17,0-0.34,0-0.51c0-4.67,0-9.34,0-14c0-0.2-0.01-0.4,0.01-0.6
		c0.01-0.09,0.09-0.25,0.15-0.26c0.4-0.03,0.8-0.03,1.19-0.01c0.06,0,0.14,0.22,0.15,0.34c0.02,0.31,0.01,0.63,0.01,0.94
		C387.85,39.01,387.85,41.2,387.85,43.4z"/>
	<path class="st0" d="M327.43,43.42c0,2.39,0,4.78,0,7.17c0,0.77,0.04,0.7-0.68,0.7c-0.06,0-0.11,0-0.17,0
		c-0.65-0.01-0.66-0.01-0.66-0.65c0-4.84,0-9.68,0-14.52c0-0.59,0.01-0.59,0.61-0.61c0.11,0,0.23,0,0.34,0
		c0.51-0.01,0.56-0.07,0.56,0.56C327.43,38.52,327.43,40.97,327.43,43.42z"/>
	<path class="st0" d="M280.62,43.91c-0.97,0-1.93-0.01-2.9,0.01c-0.35,0.01-0.5-0.07-0.5-0.47c0.01-0.75-0.02-0.76,0.72-0.76
		c1.88,0,3.75,0,5.63,0c0.18,0,0.51,0.06,0.52,0.13c0.05,0.33,0.02,0.67-0.02,1c-0.01,0.05-0.25,0.09-0.38,0.09
		C282.67,43.91,281.64,43.91,280.62,43.91z"/>
	<path class="st0" d="M413.95,65.44c-0.1,0.35-0.14,0.7-0.31,0.98c-0.37,0.63-1.19,0.59-1.49-0.08c-0.28-0.62-0.27-1.28,0.02-1.89
		c0.27-0.58,1.13-0.62,1.46-0.05C413.81,64.7,413.85,65.08,413.95,65.44z"/>
	<path class="st0" d="M472.29,31.23c-0.05,0.24-0.08,0.55-0.18,0.84c-0.13,0.39-0.45,0.56-0.86,0.55c-0.39-0.01-0.61-0.23-0.74-0.58
		c-0.19-0.52-0.18-1.05-0.04-1.58c0.11-0.41,0.37-0.63,0.78-0.66c0.41-0.04,0.78,0.2,0.91,0.62
		C472.23,30.64,472.24,30.9,472.29,31.23z"/>
	<path class="st0" d="M325.71,31.23c0.06-0.31,0.09-0.59,0.17-0.86c0.1-0.37,0.38-0.56,0.75-0.58c0.36-0.01,0.69,0.12,0.83,0.47
		c0.27,0.66,0.3,1.34-0.07,1.95c-0.13,0.21-0.5,0.34-0.78,0.39c-0.34,0.06-0.59-0.18-0.7-0.5C325.81,31.81,325.77,31.5,325.71,31.23
		z"/>
	<path class="st0" d="M388.1,31.24c-0.09,0.32-0.14,0.66-0.29,0.95c-0.16,0.32-0.47,0.47-0.85,0.42c-0.34-0.04-0.57-0.25-0.68-0.56
		c-0.2-0.55-0.19-1.1-0.01-1.66c0.12-0.37,0.37-0.58,0.74-0.6c0.4-0.03,0.73,0.12,0.87,0.53C387.98,30.6,388.02,30.91,388.1,31.24z"
		/>
	<path class="st1" d="M49.89,27.39l0.45,0.33l-0.4-0.39"/>
</g>
</svg>
